<svg xmlns="http://www.w3.org/2000/svg" version="1.1" xmlns:xlink="http://www.w3.org/1999/xlink" xmlns:svgjs="http://svgjs.dev/svgjs" width="1000" height="1000" viewBox="0 0 1000 1000"><rect width="1000" height="1000" fill="#000000"></rect><g transform="matrix(0.7,0,0,0.7,149.84897959183667,150.19913061224486)"><svg viewBox="0 0 343 343" data-background-color="#ffffff" preserveAspectRatio="xMidYMid meet" height="999" width="1000" xmlns="http://www.w3.org/2000/svg" xmlns:xlink="http://www.w3.org/1999/xlink"><g id="tight-bounds" transform="matrix(1,0,0,1,0.0740000000000407,0.07400000000001228)"><svg viewBox="0 0 342.85155851775386 342.85155851775386" height="342.85155851775386" width="342.85155851775386"><g><svg></svg></g><g><svg viewBox="0 0 342.85155851775386 342.85155851775386" height="342.85155851775386" width="342.85155851775386"><g><path d="M0 171.426c0-94.676 76.75-171.426 171.426-171.426 94.676 0 171.426 76.75 171.426 171.426 0 94.676-76.75 171.426-171.426 171.426-94.676 0-171.426-76.75-171.426-171.426zM171.426 339.524c92.838 0 168.098-75.26 168.098-168.098 0-92.838-75.26-168.098-168.098-168.098-92.838 0-168.098 75.26-168.098 168.098 0 92.838 75.26 168.098 168.098 168.098z" data-fill-palette-color="tertiary" fill="#2d393c" stroke="transparent"></path><ellipse rx="164.56874808852186" ry="164.56874808852186" cx="171.42577925887693" cy="171.42577925887693" fill="#2d393c" stroke="transparent" stroke-width="0" fill-opacity="1" data-fill-palette-color="tertiary"></ellipse></g><g transform="matrix(1,0,0,1,64.84655864529837,97.61780553726504)"><svg viewBox="0 0 213.1584412271571 147.61594744322377" height="147.61594744322377" width="213.1584412271571"><g><svg viewBox="0 0 213.1584412271571 147.61594744322377" height="147.61594744322377" width="213.1584412271571"><g><svg viewBox="0 0 213.1584412271571 147.61594744322377" height="147.61594744322377" width="213.1584412271571"><g transform="matrix(1,0,0,1,0,110.71266174484612)"><svg viewBox="0 0 213.1584412271571 36.90328569837767" height="36.90328569837767" width="213.1584412271571"><g><svg viewBox="0 0 213.1584412271571 36.90328569837767" height="36.90328569837767" width="213.1584412271571"><g><svg viewBox="0 0 213.1584412271571 36.90328569837767" height="36.90328569837767" width="213.1584412271571"><g transform="matrix(1,0,0,1,0,0)"><svg width="213.1584412271571" viewBox="1 -37.099998474121094 217.1687774658203 37.599998474121094" height="36.90328569837767" data-palette-color="#e1c305"><path d="M19.1-19.6L19.1-19.6Q18.25-20.7 16.8-21.5 15.35-22.3 13.25-22.3L13.25-22.3Q11.4-22.3 10.13-21.58 8.85-20.85 8.85-19.6L8.85-19.6Q8.85-18.95 9.35-18.38 9.85-17.8 11.65-17.35L11.65-17.35 17.4-15.95Q21.55-15 23.3-12.85 25.05-10.7 25.05-8.05L25.05-8.05Q25.05-5.35 23.53-3.45 22-1.55 19.3-0.53 16.6 0.5 13.1 0.5L13.1 0.5Q8.65 0.5 5.55-1.07 2.45-2.65 1.2-5L1.2-5Q1-5.35 1-5.68 1-6 1.3-6.15L1.3-6.15 4.7-7.9Q5.2-8.15 5.48-8.13 5.75-8.1 5.95-7.85L5.95-7.85Q6.6-6.95 7.5-6.15 8.4-5.35 9.75-4.88 11.1-4.4 13.15-4.45L13.15-4.45Q14.55-4.45 15.68-4.78 16.8-5.1 17.45-5.73 18.1-6.35 18.1-7.2L18.1-7.2Q18.1-8.05 17.4-8.68 16.7-9.3 14.8-9.75L14.8-9.75 9.65-10.85Q5.9-11.7 3.98-13.53 2.05-15.35 2.05-18.3L2.05-18.3Q2.05-20.85 3.38-22.8 4.7-24.75 7.25-25.88 9.8-27 13.35-27L13.35-27Q17.15-27 19.93-25.6 22.7-24.2 23.9-22.25L23.9-22.25Q24.1-21.95 24.2-21.63 24.3-21.3 23.85-21.05L23.85-21.05 20.25-19.3Q19.9-19.15 19.63-19.23 19.35-19.3 19.1-19.6L19.1-19.6ZM30.35 0L30.35 0Q29.3 0 29.3-1L29.3-1 29.3-36.15Q29.3-37.1 30.1-37.1L30.1-37.1 36.1-37.1Q36.85-37.1 36.85-36.25L36.85-36.25 36.85-23.45Q36.85-23.15 37-23.08 37.15-23 37.45-23.25L37.45-23.25Q39-24.65 40.37-25.45 41.75-26.25 43.12-26.63 44.5-27 45.9-27L45.9-27Q49.7-27 51.75-24.9 53.8-22.8 53.8-19L53.8-19 53.8-1.2Q53.8 0 52.6 0L52.6 0 47.05 0Q46.55 0 46.32-0.23 46.1-0.45 46.1-1L46.1-1 46.1-17.9Q46.1-19.6 45.2-20.53 44.3-21.45 42.5-21.45L42.5-21.45Q41.45-21.45 40.55-21.1 39.65-20.75 38.8-20.08 37.95-19.4 37-18.35L37-18.35 37-1.15Q37 0 35.7 0L35.7 0 30.35 0ZM71.3 0.5L71.3 0.5Q67.34 0.5 64.32-1.25 61.3-3 59.59-6.08 57.89-9.15 57.89-13.1L57.89-13.1Q57.89-17.25 59.64-20.38 61.39-23.5 64.44-25.25 67.5-27 71.34-27L71.34-27Q75.39-27 78.39-25.23 81.39-23.45 83.07-20.33 84.75-17.2 84.75-13.15L84.75-13.15Q84.75-9.15 83.05-6.08 81.34-3 78.32-1.25 75.3 0.5 71.3 0.5L71.3 0.5ZM71.34-4.6L71.34-4.6Q73.19-4.6 74.44-5.58 75.69-6.55 76.32-8.5 76.94-10.45 76.94-13.25L76.94-13.25Q76.94-16.2 76.32-18.13 75.69-20.05 74.44-21.05 73.19-22.05 71.34-22.05L71.34-22.05Q69.55-22.05 68.27-21.05 67-20.05 66.34-18.13 65.69-16.2 65.69-13.25L65.69-13.25Q65.69-10.4 66.34-8.47 67-6.55 68.27-5.58 69.55-4.6 71.34-4.6L71.34-4.6ZM123.79-26.5L123.79-26.5Q124.29-26.5 124.49-26.15 124.69-25.8 124.49-25.35L124.49-25.35 116.34-0.8Q116.19-0.35 115.97-0.18 115.74 0 115.29 0L115.29 0 111.19 0Q110.19 0 109.89-0.95L109.89-0.95 105.59-14.7Q105.39-15.2 105.19-15.2 104.99-15.2 104.89-14.7L104.89-14.7 100.49-0.8Q100.39-0.35 100.17-0.18 99.94 0 99.44 0L99.44 0 95.19 0Q94.24 0 93.94-0.95L93.94-0.95 85.89-25.3Q85.74-25.8 85.97-26.15 86.19-26.5 86.69-26.5L86.69-26.5 92.54-26.5Q92.89-26.5 93.22-26.28 93.54-26.05 93.64-25.65L93.64-25.65 98.09-11.5Q98.19-11.05 98.42-11.05 98.64-11.05 98.79-11.55L98.79-11.55 103.09-25.7Q103.19-26.05 103.49-26.28 103.79-26.5 104.19-26.5L104.19-26.5 108.39-26.5Q108.74-26.5 109.07-26.28 109.39-26.05 109.44-25.65L109.44-25.65 113.79-11.5Q113.94-11.05 114.14-11.05 114.34-11.05 114.54-11.55L114.54-11.55 118.84-25.7Q119.04-26.05 119.32-26.28 119.59-26.5 119.99-26.5L119.99-26.5 123.79-26.5ZM130.09 0L130.09 0Q129.64 0 129.39-0.25 129.14-0.5 129.14-0.9L129.14-0.9 129.14-36.05Q129.14-36.5 129.42-36.8 129.69-37.1 130.14-37.1L130.14-37.1 143.69-37.1Q151.04-37.1 154.92-34.63 158.79-32.15 158.79-27.35L158.79-27.35Q158.79-24.6 157.32-22.7 155.84-20.8 152.24-19.25L152.24-19.25Q152.09-19.2 152.09-19.05 152.09-18.9 152.24-18.85L152.24-18.85Q156.19-17.55 157.94-15.48 159.69-13.4 159.69-10.05L159.69-10.05Q159.69-4.95 155.84-2.48 151.99 0 144.34 0L144.34 0 130.09 0ZM138.59-5.9L144.09-5.9Q147.34-5.9 148.97-7.25 150.59-8.6 150.59-10.85L150.59-10.85Q150.59-12.45 149.79-13.53 148.99-14.6 147.62-15.15 146.24-15.7 144.44-15.7L144.44-15.7 138.84-15.7Q137.89-15.7 137.89-14.85L137.89-14.85 137.89-6.85Q137.89-5.9 138.59-5.9L138.59-5.9ZM138.59-21.8L144.44-21.8Q145.59-21.8 146.62-22.05 147.64-22.3 148.42-22.9 149.19-23.5 149.67-24.35 150.14-25.2 150.14-26.35L150.14-26.35Q150.14-28.7 148.42-29.95 146.69-31.2 143.99-31.2L143.99-31.2 138.84-31.2Q137.89-31.2 137.89-30.35L137.89-30.35 137.89-22.7Q137.89-21.8 138.59-21.8L138.59-21.8ZM176.74 0.5L176.74 0.5Q172.79 0.5 169.76-1.25 166.74-3 165.04-6.08 163.34-9.15 163.34-13.1L163.34-13.1Q163.34-17.25 165.09-20.38 166.84-23.5 169.89-25.25 172.94-27 176.79-27L176.79-27Q180.84-27 183.84-25.23 186.84-23.45 188.51-20.33 190.19-17.2 190.19-13.15L190.19-13.15Q190.19-9.15 188.49-6.08 186.79-3 183.76-1.25 180.74 0.5 176.74 0.5L176.74 0.5ZM176.79-4.6L176.79-4.6Q178.64-4.6 179.89-5.58 181.14-6.55 181.76-8.5 182.39-10.45 182.39-13.25L182.39-13.25Q182.39-16.2 181.76-18.13 181.14-20.05 179.89-21.05 178.64-22.05 176.79-22.05L176.79-22.05Q174.99-22.05 173.71-21.05 172.44-20.05 171.79-18.13 171.14-16.2 171.14-13.25L171.14-13.25Q171.14-10.4 171.79-8.47 172.44-6.55 173.71-5.58 174.99-4.6 176.79-4.6L176.79-4.6ZM217.59-1.7L217.59-1.7Q218.24-0.75 218.16-0.38 218.09 0 217.24 0L217.24 0 210.84 0Q209.64 0 209.14-0.8L209.14-0.8 203.99-8.05Q203.59-8.65 203.41-8.65 203.24-8.65 202.79-8.1L202.79-8.1 197.54-0.8Q197.04 0 195.89 0L195.89 0 191.79 0Q190.94 0 190.64-0.45 190.34-0.9 191.19-2L191.19-2 199.39-12.55Q199.69-13 199.66-13.33 199.64-13.65 199.34-14.1L199.34-14.1 191.24-25.1Q190.89-25.55 191.09-26.03 191.29-26.5 191.99-26.5L191.99-26.5 198.09-26.5Q198.74-26.5 199.09-26.33 199.44-26.15 199.69-25.7L199.69-25.7 204.34-19.15Q204.79-18.45 205.19-19.15L205.19-19.15 209.59-25.7Q209.89-26.15 210.21-26.33 210.54-26.5 211.24-26.5L211.24-26.5 215.74-26.5Q216.49-26.5 216.56-26.15 216.64-25.8 216.29-25.35L216.29-25.35 208.84-15.25Q208.49-14.8 208.54-14.5 208.59-14.2 208.89-13.75L208.89-13.75 217.59-1.7Z" opacity="1" transform="matrix(1,0,0,1,0,0)" fill="#e1c305" class="undefined-text-0" data-fill-palette-color="quaternary" id="text-0"></path></svg></g></svg></g></svg></g></svg></g><g transform="matrix(1,0,0,1,58.578208142016805,0)"><svg viewBox="0 0 96.0020249431235 102.00068167031591" height="102.00068167031591" width="96.0020249431235"><g><svg version="1.1" xmlns="http://www.w3.org/2000/svg" xmlns:xlink="http://www.w3.org/1999/xlink" x="0" y="0" viewBox="0 0 94.11900329589844 100" enable-background="new 0 0 94.119 100" xml:space="preserve" width="96.0020249431235" height="102.00068167031591" class="icon-icon-0" data-fill-palette-color="quaternary" id="icon-0"><polygon points="82.354,0 69.118,3.861 75.552,21.324 88.235,17.647 " fill="#e1c305" data-fill-palette-color="quaternary"></polygon><polygon points="61.031,6.067 43.75,11.029 44.118,11.765 47.427,20.772 50.368,28.493 67.648,23.53 " fill="#e1c305" data-fill-palette-color="quaternary"></polygon><polygon points="35.846,13.235 20.589,17.647 27.207,35.111 42.464,30.699 38.604,20.772 " fill="#e1c305" data-fill-palette-color="quaternary"></polygon><polygon points="12.684,19.853 0,23.53 5.883,41.177 19.118,37.317 " fill="#e1c305" data-fill-palette-color="quaternary"></polygon><path d="M5.883 41.177v52.941c0 3.259 2.623 5.882 5.882 5.882h76.47c3.259 0 5.884-2.623 5.884-5.882V41.177H5.883zM82.354 70.588H17.647V52.942h64.706V70.588z" fill="#e1c305" data-fill-palette-color="quaternary"></path></svg></g></svg></g><g></g></svg></g></svg></g></svg></g></svg></g><defs></defs></svg><rect width="342.85155851775386" height="342.85155851775386" fill="none" stroke="none" visibility="hidden"></rect></g></svg></g></svg>